<mxfile host="app.diagrams.net" agent="Mozilla/5.0 (Windows NT 10.0; Win64; x64; rv:136.0) Gecko/20100101 Firefox/136.0" version="24.7.6">
  <diagram name="第 1 页" id="eTVHB9lguTDk1tAQaMdh">
    <mxGraphModel dx="842" dy="506" grid="1" gridSize="10" guides="1" tooltips="1" connect="1" arrows="1" fold="1" page="1" pageScale="1" pageWidth="827" pageHeight="1169" math="0" shadow="0">
      <root>
        <mxCell id="0" />
        <mxCell id="1" parent="0" />
        <mxCell id="wdq1fw2TYDgfDm0N4Vt8-48" value="" style="rounded=1;whiteSpace=wrap;html=1;dashed=1;shadow=0;dashPattern=8 8;strokeColor=#c0c0c0;" vertex="1" parent="1">
          <mxGeometry x="185" y="150" width="160" height="196" as="geometry" />
        </mxCell>
        <mxCell id="wdq1fw2TYDgfDm0N4Vt8-13" value="" style="rounded=0;orthogonalLoop=1;jettySize=auto;html=1;strokeColor=#6c8ebf;fontColor=#393C56;fillColor=#dae8fc;entryX=1.008;entryY=0.542;entryDx=0;entryDy=0;entryPerimeter=0;align=center;verticalAlign=middle;fontFamily=Helvetica;fontSize=11;labelBackgroundColor=default;endArrow=classic;curved=0;exitX=0;exitY=0;exitDx=0;exitDy=55;exitPerimeter=0;" edge="1" parent="1" source="wdq1fw2TYDgfDm0N4Vt8-1" target="wdq1fw2TYDgfDm0N4Vt8-3">
          <mxGeometry relative="1" as="geometry">
            <mxPoint x="85" y="355" as="sourcePoint" />
            <mxPoint x="159.71000000000004" y="261.11" as="targetPoint" />
            <Array as="points">
              <mxPoint x="100" y="355" />
              <mxPoint x="100" y="310" />
              <mxPoint x="100" y="261" />
              <mxPoint x="115" y="261" />
            </Array>
          </mxGeometry>
        </mxCell>
        <mxCell id="wdq1fw2TYDgfDm0N4Vt8-1" value="" style="shape=cube;whiteSpace=wrap;html=1;boundedLbl=1;backgroundOutline=1;darkOpacity=0.05;darkOpacity2=0.1;direction=east;flipH=1;labelBackgroundColor=none;fillColor=#dae8fc;strokeColor=#6c8ebf;" vertex="1" parent="1">
          <mxGeometry x="50" y="300" width="30" height="120" as="geometry" />
        </mxCell>
        <mxCell id="wdq1fw2TYDgfDm0N4Vt8-8" value="" style="edgeStyle=orthogonalEdgeStyle;rounded=0;orthogonalLoop=1;jettySize=auto;html=1;strokeColor=#E07A5F;fontColor=#393C56;fillColor=#F2CC8F;entryX=1.013;entryY=0.541;entryDx=0;entryDy=0;entryPerimeter=0;" edge="1" parent="1" source="wdq1fw2TYDgfDm0N4Vt8-2" target="wdq1fw2TYDgfDm0N4Vt8-3">
          <mxGeometry relative="1" as="geometry">
            <Array as="points">
              <mxPoint x="100" y="155" />
              <mxPoint x="100" y="261" />
            </Array>
          </mxGeometry>
        </mxCell>
        <mxCell id="wdq1fw2TYDgfDm0N4Vt8-2" value="" style="shape=cube;whiteSpace=wrap;html=1;boundedLbl=1;backgroundOutline=1;darkOpacity=0.05;darkOpacity2=0.1;direction=east;flipH=1;labelBackgroundColor=none;fillColor=#ffe6cc;strokeColor=#d79b00;" vertex="1" parent="1">
          <mxGeometry x="50" y="100" width="30" height="120" as="geometry" />
        </mxCell>
        <mxCell id="wdq1fw2TYDgfDm0N4Vt8-3" value="" style="shape=cube;whiteSpace=wrap;html=1;boundedLbl=1;backgroundOutline=1;darkOpacity=0.05;darkOpacity2=0.1;direction=east;flipH=1;labelBackgroundColor=none;fillColor=#dae8fc;strokeColor=#6c8ebf;" vertex="1" parent="1">
          <mxGeometry x="130" y="196" width="30" height="120" as="geometry" />
        </mxCell>
        <mxCell id="wdq1fw2TYDgfDm0N4Vt8-5" value="" style="shape=cube;whiteSpace=wrap;html=1;boundedLbl=1;backgroundOutline=1;darkOpacity=0.05;darkOpacity2=0.1;direction=east;flipH=1;labelBackgroundColor=none;fillColor=#ffe6cc;strokeColor=#d79b00;" vertex="1" parent="1">
          <mxGeometry x="140" y="196" width="30" height="120" as="geometry" />
        </mxCell>
        <mxCell id="wdq1fw2TYDgfDm0N4Vt8-6" value="模态一" style="text;html=1;align=center;verticalAlign=middle;whiteSpace=wrap;rounded=0;fontColor=#393C56;fontSize=14;" vertex="1" parent="1">
          <mxGeometry x="30" y="221" width="60" height="30" as="geometry" />
        </mxCell>
        <mxCell id="wdq1fw2TYDgfDm0N4Vt8-7" value="模态二" style="text;html=1;align=center;verticalAlign=middle;whiteSpace=wrap;rounded=0;fontColor=#393C56;fontSize=14;" vertex="1" parent="1">
          <mxGeometry x="30" y="421" width="60" height="30" as="geometry" />
        </mxCell>
        <mxCell id="wdq1fw2TYDgfDm0N4Vt8-20" value="" style="shape=cube;whiteSpace=wrap;html=1;boundedLbl=1;backgroundOutline=1;darkOpacity=0.05;darkOpacity2=0.1;direction=east;flipH=1;labelBackgroundColor=none;fillColor=#f8cecc;strokeColor=#b85450;" vertex="1" parent="1">
          <mxGeometry x="360" y="196" width="50" height="120" as="geometry" />
        </mxCell>
        <mxCell id="wdq1fw2TYDgfDm0N4Vt8-22" value="网络输出" style="text;html=1;align=center;verticalAlign=middle;whiteSpace=wrap;rounded=0;fontColor=#393C56;fontSize=14;" vertex="1" parent="1">
          <mxGeometry x="350" y="316" width="60" height="30" as="geometry" />
        </mxCell>
        <mxCell id="wdq1fw2TYDgfDm0N4Vt8-30" value="" style="edgeStyle=orthogonalEdgeStyle;rounded=0;orthogonalLoop=1;jettySize=auto;html=1;strokeColor=#7EA6E0;fontColor=#393C56;fillColor=#F2CC8F;" edge="1" parent="1" source="wdq1fw2TYDgfDm0N4Vt8-23" target="wdq1fw2TYDgfDm0N4Vt8-29">
          <mxGeometry relative="1" as="geometry" />
        </mxCell>
        <mxCell id="wdq1fw2TYDgfDm0N4Vt8-23" value="" style="shape=cube;whiteSpace=wrap;html=1;boundedLbl=1;backgroundOutline=1;darkOpacity=0.05;darkOpacity2=0.1;direction=east;flipH=1;labelBackgroundColor=none;fillColor=#dae8fc;strokeColor=#6c8ebf;" vertex="1" parent="1">
          <mxGeometry x="640" y="300" width="30" height="120" as="geometry" />
        </mxCell>
        <mxCell id="wdq1fw2TYDgfDm0N4Vt8-28" value="" style="edgeStyle=orthogonalEdgeStyle;rounded=0;orthogonalLoop=1;jettySize=auto;html=1;strokeColor=#E07A5F;fontColor=#393C56;fillColor=#F2CC8F;" edge="1" parent="1" source="wdq1fw2TYDgfDm0N4Vt8-24" target="wdq1fw2TYDgfDm0N4Vt8-27">
          <mxGeometry relative="1" as="geometry" />
        </mxCell>
        <mxCell id="wdq1fw2TYDgfDm0N4Vt8-24" value="" style="shape=cube;whiteSpace=wrap;html=1;boundedLbl=1;backgroundOutline=1;darkOpacity=0.05;darkOpacity2=0.1;direction=east;flipH=1;labelBackgroundColor=none;fillColor=#ffe6cc;strokeColor=#d79b00;" vertex="1" parent="1">
          <mxGeometry x="640" y="100" width="30" height="120" as="geometry" />
        </mxCell>
        <mxCell id="wdq1fw2TYDgfDm0N4Vt8-25" value="模态一" style="text;html=1;align=center;verticalAlign=middle;whiteSpace=wrap;rounded=0;fontColor=#393C56;fontSize=14;" vertex="1" parent="1">
          <mxGeometry x="620" y="221" width="60" height="30" as="geometry" />
        </mxCell>
        <mxCell id="wdq1fw2TYDgfDm0N4Vt8-26" value="模态二" style="text;html=1;align=center;verticalAlign=middle;whiteSpace=wrap;rounded=0;fontColor=#393C56;fontSize=14;" vertex="1" parent="1">
          <mxGeometry x="620" y="421" width="60" height="30" as="geometry" />
        </mxCell>
        <mxCell id="wdq1fw2TYDgfDm0N4Vt8-27" value="&lt;font style=&quot;font-size: 14px;&quot;&gt;特征网络&lt;/font&gt;" style="rounded=0;whiteSpace=wrap;html=1;strokeColor=#666666;fontColor=#333333;fillColor=#f5f5f5;glass=0;shadow=1;" vertex="1" parent="1">
          <mxGeometry x="710" y="130" width="100" height="60" as="geometry" />
        </mxCell>
        <mxCell id="wdq1fw2TYDgfDm0N4Vt8-29" value="&lt;font style=&quot;font-size: 14px;&quot;&gt;特征网络&lt;/font&gt;" style="rounded=0;whiteSpace=wrap;html=1;strokeColor=#666666;fontColor=#333333;fillColor=#f5f5f5;glass=0;shadow=1;" vertex="1" parent="1">
          <mxGeometry x="710" y="330" width="100" height="60" as="geometry" />
        </mxCell>
        <mxCell id="wdq1fw2TYDgfDm0N4Vt8-31" value="" style="shape=cube;whiteSpace=wrap;html=1;boundedLbl=1;backgroundOutline=1;darkOpacity=0.05;darkOpacity2=0.1;direction=east;flipH=1;labelBackgroundColor=none;fillColor=#dae8fc;strokeColor=#6c8ebf;" vertex="1" parent="1">
          <mxGeometry x="840" y="196" width="30" height="120" as="geometry" />
        </mxCell>
        <mxCell id="wdq1fw2TYDgfDm0N4Vt8-32" value="" style="edgeStyle=orthogonalEdgeStyle;rounded=0;orthogonalLoop=1;jettySize=auto;html=1;strokeColor=#000000;fontColor=#393C56;fillColor=#F2CC8F;endArrow=classicThin;endFill=1;" edge="1" parent="1" source="wdq1fw2TYDgfDm0N4Vt8-33">
          <mxGeometry relative="1" as="geometry">
            <mxPoint x="910" y="256" as="targetPoint" />
          </mxGeometry>
        </mxCell>
        <mxCell id="wdq1fw2TYDgfDm0N4Vt8-33" value="" style="shape=cube;whiteSpace=wrap;html=1;boundedLbl=1;backgroundOutline=1;darkOpacity=0.05;darkOpacity2=0.1;direction=east;flipH=1;labelBackgroundColor=none;fillColor=#ffe6cc;strokeColor=#d79b00;" vertex="1" parent="1">
          <mxGeometry x="850" y="196" width="30" height="120" as="geometry" />
        </mxCell>
        <mxCell id="wdq1fw2TYDgfDm0N4Vt8-34" value="" style="shape=cube;whiteSpace=wrap;html=1;boundedLbl=1;backgroundOutline=1;darkOpacity=0.05;darkOpacity2=0.1;direction=east;flipH=1;labelBackgroundColor=none;fillColor=#d5e8d4;strokeColor=#82b366;" vertex="1" parent="1">
          <mxGeometry x="200" y="196" width="50" height="120" as="geometry" />
        </mxCell>
        <mxCell id="wdq1fw2TYDgfDm0N4Vt8-35" value="" style="shape=cube;whiteSpace=wrap;html=1;boundedLbl=1;backgroundOutline=1;darkOpacity=0.05;darkOpacity2=0.1;direction=east;flipH=1;labelBackgroundColor=none;fillColor=#d5e8d4;strokeColor=#82b366;" vertex="1" parent="1">
          <mxGeometry x="280" y="196" width="50" height="120" as="geometry" />
        </mxCell>
        <mxCell id="wdq1fw2TYDgfDm0N4Vt8-39" value="" style="edgeStyle=orthogonalEdgeStyle;rounded=0;orthogonalLoop=1;jettySize=auto;html=1;strokeColor=#000000;fontColor=#393C56;fillColor=#F2CC8F;endArrow=classicThin;endFill=1;exitX=0.2;exitY=0.5;exitDx=0;exitDy=0;exitPerimeter=0;" edge="1" parent="1" source="wdq1fw2TYDgfDm0N4Vt8-35" target="wdq1fw2TYDgfDm0N4Vt8-20">
          <mxGeometry relative="1" as="geometry" />
        </mxCell>
        <mxCell id="wdq1fw2TYDgfDm0N4Vt8-40" value="中间层" style="text;html=1;align=center;verticalAlign=middle;whiteSpace=wrap;rounded=0;fontColor=#393C56;fontSize=14;" vertex="1" parent="1">
          <mxGeometry x="190" y="316" width="60" height="30" as="geometry" />
        </mxCell>
        <mxCell id="wdq1fw2TYDgfDm0N4Vt8-41" value="中间层" style="text;html=1;align=center;verticalAlign=middle;whiteSpace=wrap;rounded=0;fontColor=#393C56;fontSize=14;" vertex="1" parent="1">
          <mxGeometry x="270" y="316" width="60" height="30" as="geometry" />
        </mxCell>
        <mxCell id="wdq1fw2TYDgfDm0N4Vt8-42" value="" style="endArrow=classicThin;html=1;rounded=0;strokeColor=#000000;fontColor=#393C56;fillColor=#F2CC8F;shadow=0;align=center;verticalAlign=middle;fontFamily=Helvetica;fontSize=11;labelBackgroundColor=default;endFill=1;exitX=0.093;exitY=0.511;exitDx=0;exitDy=0;exitPerimeter=0;" edge="1" parent="1">
          <mxGeometry relative="1" as="geometry">
            <mxPoint x="240.00000000000003" y="256.75999999999993" as="sourcePoint" />
            <mxPoint x="280" y="257" as="targetPoint" />
          </mxGeometry>
        </mxCell>
        <mxCell id="wdq1fw2TYDgfDm0N4Vt8-43" value="···" style="edgeLabel;resizable=0;html=1;;align=center;verticalAlign=middle;strokeColor=#000000;fontColor=#393C56;fillColor=#F2CC8F;rounded=0;shadow=0;fontFamily=Helvetica;fontSize=11;labelBackgroundColor=default;" connectable="0" vertex="1" parent="wdq1fw2TYDgfDm0N4Vt8-42">
          <mxGeometry relative="1" as="geometry" />
        </mxCell>
        <mxCell id="wdq1fw2TYDgfDm0N4Vt8-46" value="" style="endArrow=classicThin;html=1;rounded=0;strokeColor=#000000;fontColor=#393C56;fillColor=#F2CC8F;shadow=0;align=center;verticalAlign=middle;fontFamily=Helvetica;fontSize=11;labelBackgroundColor=default;endFill=1;exitX=0.093;exitY=0.511;exitDx=0;exitDy=0;exitPerimeter=0;" edge="1" parent="1">
          <mxGeometry relative="1" as="geometry">
            <mxPoint x="160.00000000000003" y="255.79999999999993" as="sourcePoint" />
            <mxPoint x="200" y="256.04" as="targetPoint" />
          </mxGeometry>
        </mxCell>
        <mxCell id="wdq1fw2TYDgfDm0N4Vt8-47" value="" style="edgeLabel;resizable=0;html=1;;align=center;verticalAlign=middle;strokeColor=#000000;fontColor=#393C56;fillColor=#F2CC8F;rounded=0;shadow=0;fontFamily=Helvetica;fontSize=11;labelBackgroundColor=default;" connectable="0" vertex="1" parent="wdq1fw2TYDgfDm0N4Vt8-46">
          <mxGeometry relative="1" as="geometry" />
        </mxCell>
        <mxCell id="wdq1fw2TYDgfDm0N4Vt8-49" value="特征网络" style="text;html=1;align=center;verticalAlign=middle;whiteSpace=wrap;rounded=0;fontColor=#393C56;fontSize=14;" vertex="1" parent="1">
          <mxGeometry x="235" y="160" width="60" height="30" as="geometry" />
        </mxCell>
      </root>
    </mxGraphModel>
  </diagram>
</mxfile>
